<svg xmlns="http://www.w3.org/2000/svg" version="1.1" width="1000" height="194" viewBox="0 0 1000 194"><g transform="matrix(1,0,0,1,-0.6060606060606233,-0.5700721829534956)"><svg viewBox="0 0 396 77" data-background-color="#ffffff" preserveAspectRatio="xMidYMid meet" height="194" width="1000" xmlns="http://www.w3.org/2000/svg" xmlns:xlink="http://www.w3.org/1999/xlink"><g id="tight-bounds" transform="matrix(1,0,0,1,0.2400000000000091,0.22626576333721005)"><svg viewBox="0 0 395.52 76.54746847332555" height="76.54746847332555" width="395.52"><g><svg viewBox="0 0 518.7940975508005 100.40547842439646" height="76.54746847332555" width="395.52"><g transform="matrix(1,0,0,1,123.27409755080053,1.7678726302414347)"><svg viewBox="0 0 395.52 96.8697331639136" height="96.8697331639136" width="395.52"><g id="textblocktransform"><svg viewBox="0 0 395.52 96.8697331639136" height="96.8697331639136" width="395.52" id="textblock"><g><svg viewBox="0 0 395.52 96.8697331639136" height="96.8697331639136" width="395.52"><g transform="matrix(1,0,0,1,0,0)"><svg width="395.52" viewBox="2.690000057220459 -36.77000045776367 153.69000244140625 37.650001525878906" height="96.8697331639136" data-palette-color="#b5964d"><path d="M2.69-17.92L2.69-17.92Q2.69-26.71 6.88-31.74 11.08-36.77 17.77-36.77L17.77-36.77Q21.92-36.77 24.78-34.5 27.64-32.23 29-29.2L29-29.2 26.37-28.22Q23.24-34.13 17.72-34.13L17.72-34.13Q12.3-34.13 9.08-29.69 5.86-25.24 5.86-17.92L5.86-17.92Q5.86-10.45 9.13-6.13 12.4-1.81 17.72-1.81L17.72-1.81Q21.09-1.81 23.49-3.61 25.88-5.42 27.15-8.15L27.15-8.15 29.93-7.23Q28.32-3.76 25.32-1.44 22.31 0.88 17.77 0.88L17.77 0.88Q11.08 0.88 6.88-4.13 2.69-9.13 2.69-17.92ZM35.35-8.94L35.35-8.94 35.35-25.63 38.33-25.63 38.33-9.67Q38.33-1.61 44.38-1.61L44.38-1.61Q48.04-1.61 50-4.39 51.95-7.18 51.95-10.99L51.95-10.99 51.95-25.63 54.88-25.63 54.88 0 52 0 52-4.59Q51.85-3.86 51.32-3 50.78-2.15 49.83-1.22 48.87-0.29 47.26 0.29 45.65 0.88 43.65 0.88L43.65 0.88Q39.84 0.88 37.6-1.68 35.35-4.25 35.35-8.94ZM66.21 0L63.18 0 63.18-25.63 66.06-25.63 66.06-21.58Q66.79-23.44 68.65-24.98 70.5-26.51 73.43-26.51L73.43-26.51Q75.68-26.51 77.14-25.83L77.14-25.83 77.14-23.1Q75.24-23.83 73.43-23.83L73.43-23.83Q70.06-23.83 68.13-21.29 66.21-18.75 66.21-14.7L66.21-14.7 66.21 0ZM88.52 0L78.9-25.63 82.22-25.63 88.27-8.74Q88.27-8.74 90.32-2.59L90.32-2.59 90.42-2.59Q90.76-3.71 91.5-5.79 92.23-7.86 92.52-8.74L92.52-8.74 98.43-25.63 101.8-25.63 92.18 0 88.52 0ZM104.04-12.99L104.04-12.99Q104.04-18.99 107.22-22.75 110.39-26.51 115.52-26.51L115.52-26.51Q120.69-26.51 123.67-22.83 126.65-19.14 126.65-13.62L126.65-13.62Q126.65-13.04 126.55-11.87L126.55-11.87 107.07-11.87Q107.07-7.67 109.34-4.64 111.61-1.61 115.66-1.61L115.66-1.61Q118.25-1.61 120.33-2.88 122.4-4.15 123.48-6.2L123.48-6.2 126.02-5.37Q124.75-2.64 122.11-0.88 119.47 0.88 115.66 0.88L115.66 0.88Q110.39 0.88 107.22-2.95 104.04-6.79 104.04-12.99ZM107.12-14.16L107.12-14.16 123.62-14.16Q123.62-18.26 121.43-21.14 119.23-24.02 115.52-24.02L115.52-24.02Q111.71-24.02 109.46-21.07 107.22-18.12 107.12-14.16ZM132.51 0L128.7 0 140.51-18.46 129.28-35.89 133.14-35.89 139.05-26.37Q139.05-26.37 142.42-20.8L142.42-20.8 142.57-20.8Q143.2-21.88 144.4-23.78 145.59-25.68 146.03-26.37L146.03-26.37 151.89-35.89 155.75-35.89 144.47-18.46 156.38 0 152.58 0 146.23-10.01Q145.54-11.08 144.23-13.26 142.91-15.43 142.57-16.02L142.57-16.02 142.42-16.02Q139-10.35 138.81-10.01L138.81-10.01 132.51 0Z" opacity="1" transform="matrix(1,0,0,1,0,0)" fill="#b5964d" class="undefined-text-0" data-fill-palette-color="primary" id="text-0"></path></svg></g></svg></g></svg></g></svg></g><g><svg viewBox="0 0 100.40547842439646 100.40547842439646" height="100.40547842439646" width="100.40547842439646"><g><svg xmlns="http://www.w3.org/2000/svg" xmlns:xlink="http://www.w3.org/1999/xlink" version="1.1" x="0" y="0" viewBox="2.5 2.5 45 45" enable-background="new 0 0 50 50" xml:space="preserve" height="100.40547842439646" width="100.40547842439646" class="icon-icon-0" data-fill-palette-color="accent" id="icon-0"><path d="M6.5 45.25c0 1.243-0.896 2.25-2 2.25l0 0c-1.104 0-2-1.007-2-2.25V4.75c0-1.243 0.896-2.25 2-2.25l0 0c1.104 0 2 1.007 2 2.25V45.25z" fill="#b5964d" data-fill-palette-color="accent"></path><path d="M45.25 43.5c1.243 0 2.25 0.896 2.25 2l0 0c0 1.104-1.007 2-2.25 2H4.75c-1.243 0-2.25-0.896-2.25-2l0 0c0-1.104 1.007-2 2.25-2H45.25z" fill="#b5964d" data-fill-palette-color="accent"></path><path d="M5.683 44.599l-0.447-0.994c0.32-0.144 32.037-14.615 35.813-34.106l1.07 0.207C38.235 29.752 7.011 44.002 5.683 44.599z" fill="#b5964d" data-fill-palette-color="accent"></path></svg></g></svg></g></svg></g><defs></defs></svg><rect width="395.52" height="76.54746847332555" fill="none" stroke="none" visibility="hidden"></rect></g></svg></g></svg>